<?xml version="1.0" standalone="no"?><!DOCTYPE svg PUBLIC "-//W3C//DTD SVG 1.1//EN" "http://www.w3.org/Graphics/SVG/1.1/DTD/svg11.dtd"><svg t="1511754107474" class="icon" style="" viewBox="0 0 1024 1024" version="1.1" xmlns="http://www.w3.org/2000/svg" p-id="9622" xmlns:xlink="http://www.w3.org/1999/xlink" width="200" height="200"><defs><style type="text/css"></style></defs><path d="M633.538 235.236c-3.484-6.076-6.427-12.544-10.766-18.05-47.167-59.865-90.63-91.95-116.366-154.52-14.462 54.834-53.918 62.813-89.99 110.04-57.666 75.506-126.805 226.952-108.448 369.097 11.148 86.322 42.651 153.17 85.375 210.911 25.826 34.904 50.337 58.803 76.644 79.916 32.872 26.383 35.498 37.71 36.42 121.825l23.074 6.878h2.308c-0.345-31.902-8.206-72.083 2.307-100.87 11.88-32.532 59.739-53.847 80.76-80.24 29.012-36.424 57.385-79.095 73.837-126.088 58.164-166.132 11.03-303.495-55.155-418.9z" fill="#2AA515" p-id="9623"></path></svg>