<?xml version="1.0" standalone="no"?><!DOCTYPE svg PUBLIC "-//W3C//DTD SVG 1.1//EN" "http://www.w3.org/Graphics/SVG/1.1/DTD/svg11.dtd"><svg class="icon" width="200px" height="200.00px" viewBox="0 0 1024 1024" version="1.1" xmlns="http://www.w3.org/2000/svg"><path fill="#333333" d="M314.553 312.863c41.313-41.336 92.465-66.521 145.914-76.091v94.494l254.82-141.564-254.82-155.727V146.65c-78.076 9.816-153.655 44.259-213.639 104.243-115.777 115.776-138.107 289.418-67.391 427.748l72.455-72.456c-37.41-98.488-16.664-213.996 62.661-293.322zM820.155 318.217l-64.536 64.536c52.868 103.709 36.071 233.762-50.661 320.516-52.044 52.044-119.658 78.835-187.852 80.575v-98.667l-254.82 155.729 254.82 141.564V878.472c90.814-2.32 180.892-37.7 250.246-107.054 123.049-123.027 140.382-311.303 52.803-453.201z" /></svg>